<svg width="304" height="305" viewBox="0 0 304 305" fill="none" xmlns="http://www.w3.org/2000/svg">
    <path d="M134.193 304.793C124.163 304.793 116.043 298.393 113.983 288.863L110.733 273.873C105.503 272.043 100.493 269.883 95.6335 267.363C92.2935 269.553 89.3335 271.583 86.5635 273.993C77.8535 281.583 66.4235 281.993 59.3835 274.973L31.6535 247.323C24.3635 240.053 23.6235 229.393 29.8235 220.803L37.7035 209.883C35.1735 204.963 32.9335 199.613 30.8435 193.513C28.5435 192.973 26.3235 192.543 23.9335 192.073C21.3635 191.573 18.6935 191.043 15.6935 190.353C7.28347 188.433 1.28347 181.423 0.753465 172.903C-0.146535 158.323 -0.236535 145.373 0.463465 133.303C1.09347 122.543 7.56347 114.703 17.3635 112.833C22.2235 111.903 26.7335 111.023 31.0335 109.963C33.2535 104.493 35.3835 99.6728 37.6035 95.1328C34.9235 91.0728 32.1635 87.2328 29.2935 83.2428C23.4735 75.1328 24.2635 64.5428 31.2335 57.4728L58.1035 30.2028C64.9735 23.0528 75.1035 21.9628 82.7835 27.5528L96.1735 37.2928C100.943 35.0228 105.663 33.2328 110.323 31.6028C110.983 28.9428 111.553 26.1928 112.153 23.3428C112.533 21.5028 112.923 19.6828 113.323 17.8728C115.823 6.64276 124.863 -0.157238 137.023 0.00276247L170.563 0.602763C179.963 0.772763 187.393 6.86276 189.493 16.1228L192.983 31.5028L203.963 35.6728L206.903 37.1428L219.983 27.5528C228.083 21.6228 238.283 22.8728 245.973 30.7428L272.533 57.9328C277.593 63.1128 280.493 72.3928 273.483 82.9328L265.643 94.7128C268.013 99.4228 270.343 104.313 272.153 109.663L287.223 112.723C296.873 114.683 303.353 122.603 303.373 132.423L303.443 170.923C303.463 181.873 295.933 190.523 285.133 191.963C280.143 192.623 275.833 193.293 271.823 194.023C270.053 199.153 268.043 204.523 265.563 209.933C267.763 213.273 269.863 216.333 272.303 219.343C279.153 227.803 279.373 238.363 272.823 245.033L253.373 264.833L244.893 273.313C236.973 281.233 225.733 281.743 216.923 274.583C213.743 271.993 210.353 269.523 206.693 267.123C201.983 269.573 197.333 271.533 192.913 273.203C191.963 278.143 190.963 283.233 189.623 288.473C187.123 298.183 178.723 304.723 168.723 304.743L134.233 304.803H134.193V304.793Z" fill="#404040"/>
    <path d="M138.133 270.533C130.363 270.533 124.063 265.573 122.463 258.183L119.943 246.563C115.883 245.143 112.003 243.473 108.243 241.513C105.653 243.213 103.353 244.783 101.213 246.653C94.4634 252.533 85.6034 252.853 80.1434 247.413L58.6434 225.973C52.9934 220.333 52.4134 212.073 57.2234 205.413L63.3334 196.953C61.3734 193.133 59.6334 188.993 58.0134 184.263C56.2334 183.843 54.5134 183.513 52.6534 183.143C50.6634 182.753 48.5934 182.343 46.2634 181.813C39.7434 180.323 35.0934 174.893 34.6834 168.283C33.9834 156.983 33.9134 146.943 34.4634 137.583C34.9434 129.243 39.9734 123.163 47.5634 121.713C51.3334 120.993 54.8234 120.313 58.1634 119.483C59.8834 115.243 61.5334 111.513 63.2534 107.993C61.1734 104.853 59.0334 101.873 56.8134 98.7727C52.3034 92.4927 52.9135 84.2727 58.3235 78.7927L79.1535 57.6527C84.4834 52.1127 92.3334 51.2627 98.2834 55.5927L108.663 63.1427C112.363 61.3827 116.023 59.9927 119.633 58.7327C120.143 56.6727 120.593 54.5427 121.053 52.3327C121.353 50.9127 121.643 49.4927 121.963 48.0927C123.913 39.3827 130.923 34.1127 140.343 34.2327L166.343 34.7027C173.633 34.8327 179.393 39.5527 181.013 46.7327L193.923 52.9427L192.233 61.8827L194.513 63.0227L204.653 55.5927C210.933 50.9927 218.833 51.9627 224.803 58.0727L245.393 79.1427C249.313 83.1527 251.563 90.3527 246.123 98.5227L240.043 107.653C241.883 111.303 243.683 115.093 245.093 119.243L256.773 121.613C264.253 123.133 269.283 129.273 269.293 136.883L269.343 166.723C269.363 175.213 263.523 181.913 255.153 183.033C251.283 183.543 247.943 184.063 244.843 184.623C243.463 188.603 241.913 192.763 239.983 196.953C241.693 199.543 243.323 201.913 245.213 204.243C250.523 210.803 250.693 218.993 245.613 224.153L230.533 239.503L223.963 246.083C217.823 252.223 209.113 252.623 202.283 247.063C199.813 245.053 200.683 257.503 197.843 255.643C194.193 257.543 174.953 263.183 171.533 264.483C170.793 268.313 167.413 255.253 166.373 259.323C164.433 266.853 172.683 270.443 164.933 270.463L138.193 270.503H138.163L138.133 270.533Z" fill="white"/>
    <path d="M176.973 285.213C175.983 289.053 172.914 291.663 168.714 291.663L134.223 291.723C130.453 291.723 127.573 289.843 126.763 286.093L122.403 265.983C122.153 264.463 121.243 263.503 119.803 263.073C110.993 260.433 102.973 256.883 95.1135 252.053C89.0435 256.173 83.3635 259.453 77.9835 264.143C75.7435 266.093 71.2735 268.363 68.6235 265.723L40.8935 238.073C37.8835 235.073 38.2035 231.553 40.4335 228.463L53.2435 210.723C47.6535 201.933 44.1235 192.743 41.1535 182.783C32.6035 180.123 26.9735 179.523 18.6235 177.623C15.9535 177.013 13.9935 174.973 13.8235 172.113C13.0435 159.373 12.7935 146.793 13.5335 134.083C13.7835 129.823 15.4835 126.523 19.8335 125.693C26.5335 124.413 33.2135 123.113 39.8135 121.153C41.0035 120.803 41.5835 118.913 41.9735 117.893C45.1635 109.783 48.5135 102.173 52.6635 94.4928C48.5635 87.6528 44.3535 81.7928 39.9335 75.6328C37.8935 72.7928 38.0135 69.2628 40.5735 66.6628L67.5135 39.3228C69.6335 37.0928 72.5935 36.2928 75.1135 38.1328L95.1335 52.7028C103.543 47.6128 112.053 44.8228 120.993 41.7928C123.353 34.8628 124.543 27.6528 126.093 20.7428C127.393 14.9328 131.533 12.9928 136.813 13.0828L170.354 13.6828C173.784 13.7428 176.023 15.7128 176.773 19.0228L181.833 41.3028L198.143 47.3728L208.223 52.4328L227.753 38.1128C231.033 35.7128 234.253 37.4328 236.663 39.9028L263.224 67.0928C265.684 69.6128 264.384 73.0928 262.634 75.7128L250.574 93.8328C254.424 101.573 258.603 109.003 260.863 117.333C261.583 119.983 262.403 121.033 265.143 121.593L284.654 125.553C288.144 126.263 290.323 128.693 290.333 132.463L290.404 170.963C290.404 175.423 287.614 178.463 283.444 179.023C276.164 179.993 269.194 181.093 261.884 182.713C258.634 192.523 255.494 201.783 250.564 210.813C254.424 216.703 257.804 222.173 262.184 227.593C263.914 229.733 265.794 233.593 263.534 235.893L244.083 255.693L235.684 264.093C232.434 267.343 228.674 267.283 225.204 264.463C219.464 259.793 213.464 255.733 206.984 251.933C198.814 257.123 190.564 260.313 181.544 263.443C180.044 270.823 178.873 277.943 176.993 285.243L176.973 285.213ZM155.124 256.143C159.144 253.733 161.303 250.023 163.143 246.183C164.893 245.653 166.574 245.313 168.464 245.083C170.044 251.393 174.204 256.063 180.514 257.963C186.794 259.863 194.043 257.343 198.033 252.623C202.463 247.383 204.084 240.893 201.214 234.273C207.494 231.583 210.794 226.743 212.734 220.593L231.083 162.323C233.823 161.913 236.314 162.353 238.954 162.133C246.444 161.513 251.734 156.113 251.904 148.983C252.074 142.173 247.343 136.283 240.163 135.083C235.783 134.353 231.463 134.943 226.993 134.663C220.773 111.493 205.633 92.2328 183.743 81.8328C185.063 76.8228 186.154 71.8728 187.854 66.8828C188.824 64.0328 190.123 61.1528 188.973 58.1828C187.873 55.3328 185.203 53.5328 182.943 53.1528C174.453 51.7128 172.374 58.6328 169.854 61.4428C165.764 66.0128 162.024 71.0728 157.434 75.1428L143.273 75.4928C134.933 75.7028 127.453 77.9928 119.723 81.5628C102.403 89.5728 88.6635 103.733 81.1635 121.393C72.3535 142.123 73.2935 164.943 82.4335 185.273C87.9635 197.583 97.5435 208.683 108.543 216.583C110.343 217.883 105.173 225.453 109.013 230.043C112.293 233.973 118.023 233.553 122.023 230.483L130.083 237.143C128.883 244.253 131.143 250.883 136.723 254.913C141.813 258.593 149.204 259.693 155.124 256.123V256.143Z" fill="#EE852E"/>
    <path d="M144.523 193.353L117.144 224.313C121.774 203.313 128.834 183.963 134.824 163.113L96.5835 163.133C97.2735 161.013 98.6735 159.933 100.013 158.473L123.464 130.453L131.223 121.093L151.973 96.2328L170.633 73.9928L179.984 62.5728L174.564 81.9828L172.193 89.0628L161.294 126.793C161.054 127.613 161.064 128.323 161.324 128.843C161.804 129.793 162.694 129.063 163.624 129.033L181.854 128.563C187.894 128.413 193.713 128.273 200.053 128.603C197.413 132.553 194.823 135.443 192.003 138.663L171.783 161.743L144.503 193.383L144.523 193.353Z" fill="#404040"/>
    <path d="M134.453 228.293C131.583 228.213 129.733 224.053 130.743 221.933C131.583 220.183 133.093 218.163 134.903 217.383L191.043 217.193C194.453 217.183 196.563 213.543 195.503 210.363L144.903 210.393C142.663 210.393 140.553 211.413 138.423 210.073L185.463 156.543L212.223 156.143C214.163 150.683 217.433 144.823 223.363 143.723C228.613 142.753 234.193 143.553 239.473 143.613C242.283 143.643 243.413 146.913 243.243 148.973C242.463 158.343 226.503 148.833 223.693 157.643L203.793 220.043C202.423 224.323 198.403 227.573 193.993 227.643L158.733 228.163C150.633 228.283 142.993 228.543 134.463 228.313L134.453 228.293Z" fill="#404040"/>
    <path d="M191.073 235.153C194.553 238.323 194.743 243.283 192.133 246.803C189.413 250.463 184.253 250.993 180.093 248.493C177.513 246.953 176.693 243.903 176.693 241.073C176.693 238.243 178.103 235.463 180.563 233.933C184.223 231.643 187.843 232.213 191.073 235.153Z" fill="#404040"/>
    <path d="M151.954 248.063C148.524 250.763 145.014 250.393 141.774 248.103C139.234 246.313 137.814 242.863 138.504 239.503C139.234 235.943 142.774 233.633 145.634 233.543C149.614 233.413 152.464 235.343 153.964 238.443C155.484 241.583 154.794 245.833 151.954 248.063Z" fill="#404040"/>
</svg>
