<svg width="1778" height="318" viewBox="0 0 1778 318" fill="none" xmlns="http://www.w3.org/2000/svg">
  <g clip-path="url(#clip0_32_2)">
    <path d="M449.74 198.63C449.11 204.21 446.2 209.87 441.03 215.62C432.98 224.76 421.71 229.33 407.23 229.33C395.27 229.33 384.72 225.48 375.58 217.77C366.44 210.07 361.87 197.53 361.87 180.17C361.87 163.9 365.99 151.42 374.25 142.74C382.5 134.06 393.21 129.72 406.37 129.72C414.19 129.72 421.23 131.19 427.5 134.12C433.77 137.05 438.94 141.68 443.02 148C446.7 153.58 449.08 160.04 450.18 167.4C450.81 171.71 451.07 177.92 450.96 186.03H386.63C386.97 195.46 389.94 202.07 395.51 205.86C398.9 208.22 402.98 209.4 407.76 209.4C412.82 209.4 416.93 207.96 420.09 205.09C421.81 203.54 423.34 201.38 424.66 198.62H449.75L449.74 198.63ZM425.42 169.83C425.02 163.33 423.05 158.4 419.51 155.04C415.97 151.68 411.59 150 406.36 150C400.67 150 396.26 151.78 393.12 155.35C389.99 158.92 388.02 163.74 387.21 169.84H425.41L425.42 169.83Z" fill="#404040"/>
    <path d="M468.02 99.11H492.6V226.22H468.02V99.11Z" fill="#404040"/>
    <path d="M597.03 198.63C596.4 204.21 593.49 209.87 588.32 215.62C580.27 224.76 569 229.33 554.52 229.33C542.56 229.33 532.01 225.48 522.87 217.77C513.73 210.07 509.16 197.53 509.16 180.17C509.16 163.9 513.28 151.42 521.54 142.74C529.79 134.06 540.5 129.72 553.66 129.72C561.48 129.72 568.52 131.19 574.79 134.12C581.06 137.05 586.23 141.68 590.31 148C593.99 153.58 596.37 160.04 597.47 167.4C598.1 171.71 598.36 177.92 598.25 186.03H533.92C534.26 195.46 537.23 202.07 542.8 205.86C546.19 208.22 550.27 209.4 555.05 209.4C560.11 209.4 564.22 207.96 567.38 205.09C569.1 203.54 570.63 201.38 571.95 198.62H597.04L597.03 198.63ZM572.71 169.83C572.31 163.33 570.34 158.4 566.8 155.04C563.26 151.68 558.88 150 553.65 150C547.96 150 543.55 151.78 540.41 155.35C537.28 158.92 535.31 163.74 534.5 169.84H572.7L572.71 169.83Z" fill="#404040"/>
    <path d="M701.03 226.23H671.36L648.85 186.04L638.67 196.65V226.23H614.52V99.55H638.67V168.02L669.28 132.66H699.72L666.86 168.62L701.01 226.23H701.03Z" fill="#404040"/>
    <path d="M756.05 208.72V227.09L744.41 227.52C732.8 227.92 724.86 225.91 720.61 221.48C717.85 218.66 716.47 214.32 716.47 208.46V150.6H703.36V133.09H716.47V106.87H740.79V133.09H756.05V150.6H740.79V200.27C740.79 204.12 741.28 206.52 742.26 207.47C743.24 208.42 746.23 208.89 751.23 208.89C751.98 208.89 752.77 208.88 753.6 208.85C754.43 208.82 755.25 208.78 756.06 208.72H756.05Z" fill="#404040"/>
    <path d="M819.09 154.91C809.2 154.91 802.56 158.13 799.17 164.57C797.27 168.19 796.32 173.77 796.32 181.3V226.23H771.57V132.23H795.03V148.61C798.82 142.34 802.13 138.06 804.95 135.76C809.55 131.91 815.53 129.98 822.89 129.98C823.35 129.98 823.74 129.99 824.06 130.02C824.37 130.05 825.08 130.09 826.17 130.15V155.33C824.62 155.16 823.24 155.04 822.03 154.99C820.82 154.93 819.84 154.9 819.1 154.9L819.09 154.91Z" fill="#404040"/>
    <path d="M918.95 144.13C926.88 154.08 930.85 165.83 930.85 179.4C930.85 192.97 926.88 205 918.95 214.8C911.02 224.6 898.97 229.5 882.82 229.5C866.67 229.5 854.62 224.6 846.69 214.8C838.76 205 834.79 193.2 834.79 179.4C834.79 165.6 838.76 154.08 846.69 144.13C854.62 134.18 866.67 129.21 882.82 129.21C898.97 129.21 911.02 134.18 918.95 144.13ZM882.73 149.99C875.54 149.99 870.01 152.53 866.13 157.62C862.25 162.71 860.31 169.97 860.31 179.39C860.31 188.81 862.25 196.09 866.13 201.21C870.01 206.33 875.54 208.89 882.73 208.89C889.92 208.89 895.44 206.33 899.29 201.21C903.14 196.09 905.07 188.82 905.07 179.39C905.07 169.96 903.14 162.7 899.29 157.62C895.44 152.53 889.92 149.99 882.73 149.99Z" fill="#404040"/>
    <path d="M1029.76 165.95H1004.58C1004.12 162.44 1002.94 159.28 1001.04 156.46C998.28 152.67 994 150.77 988.19 150.77C979.91 150.77 974.25 154.88 971.2 163.1C969.59 167.47 968.79 173.28 968.79 180.52C968.79 187.76 969.59 192.97 971.2 197.16C974.13 204.98 979.65 208.89 987.76 208.89C993.51 208.89 997.59 207.34 1000.01 204.23C1002.43 201.13 1003.89 197.1 1004.41 192.16H1029.5C1028.92 199.63 1026.22 206.71 1021.39 213.37C1013.68 224.12 1002.27 229.5 987.15 229.5C972.03 229.5 960.9 225.02 953.78 216.05C946.65 207.08 943.09 195.44 943.09 181.12C943.09 164.97 947.03 152.4 954.9 143.44C962.78 134.47 973.64 129.99 987.5 129.99C999.28 129.99 1008.93 132.64 1016.43 137.92C1023.93 143.21 1028.37 152.55 1029.75 165.95H1029.76Z" fill="#EE852E"/>
    <path d="M1050.2 142.4C1056.7 134.12 1067.85 129.98 1083.66 129.98C1093.95 129.98 1103.09 132.02 1111.08 136.1C1119.07 140.18 1123.07 147.89 1123.07 159.21V202.33C1123.07 205.32 1123.13 208.94 1123.24 213.2C1123.41 216.42 1123.9 218.6 1124.71 219.75C1125.51 220.9 1126.72 221.85 1128.33 222.6V226.22H1101.6C1100.85 224.32 1100.34 222.54 1100.05 220.87C1099.76 219.2 1099.53 217.31 1099.36 215.18C1095.97 218.86 1092.06 221.99 1087.63 224.58C1082.34 227.63 1076.36 229.15 1069.69 229.15C1061.18 229.15 1054.15 226.72 1048.61 221.86C1043.06 217 1040.29 210.12 1040.29 201.21C1040.29 189.65 1044.75 181.29 1053.66 176.12C1058.55 173.3 1065.73 171.29 1075.22 170.08L1083.58 169.05C1088.12 168.48 1091.37 167.76 1093.33 166.89C1096.84 165.4 1098.59 163.07 1098.59 159.9C1098.59 156.05 1097.25 153.39 1094.58 151.92C1091.91 150.45 1087.98 149.72 1082.81 149.72C1077 149.72 1072.89 151.16 1070.48 154.03C1068.76 156.16 1067.6 159.03 1067.03 162.65H1043.32C1043.84 154.43 1046.14 147.67 1050.22 142.38L1050.2 142.4ZM1068.48 208.46C1070.78 210.36 1073.6 211.31 1076.93 211.31C1082.22 211.31 1087.09 209.76 1091.55 206.65C1096 203.55 1098.32 197.88 1098.49 189.66V180.52C1096.94 181.5 1095.37 182.29 1093.79 182.89C1092.21 183.49 1090.04 184.05 1087.28 184.57L1081.76 185.61C1076.59 186.53 1072.88 187.65 1070.64 188.97C1066.85 191.21 1064.95 194.69 1064.95 199.4C1064.95 203.6 1066.13 206.62 1068.49 208.45L1068.48 208.46Z" fill="#EE852E"/>
    <path d="M1192.14 154.91C1182.25 154.91 1175.61 158.13 1172.22 164.57C1170.32 168.19 1169.37 173.77 1169.37 181.3V226.23H1144.62V132.23H1168.08V148.61C1171.87 142.34 1175.18 138.06 1178 135.76C1182.6 131.91 1188.58 129.98 1195.94 129.98C1196.4 129.98 1196.79 129.99 1197.11 130.02C1197.42 130.05 1198.13 130.09 1199.22 130.15V155.33C1197.67 155.16 1196.29 155.04 1195.08 154.99C1193.87 154.93 1192.89 154.9 1192.15 154.9L1192.14 154.91Z" fill="#EE852E"/>
    <path d="M1266.39 158.1C1264.32 153.56 1260.27 151.29 1254.23 151.29C1247.22 151.29 1242.5 153.56 1240.09 158.1C1238.77 160.69 1238.11 164.54 1238.11 169.66V226.23H1213.19V132.41H1237.08V146.12C1240.13 141.23 1243 137.76 1245.7 135.69C1250.47 132.01 1256.65 130.17 1264.24 130.17C1271.43 130.17 1277.23 131.75 1281.66 134.91C1285.22 137.84 1287.93 141.61 1289.77 146.21C1292.99 140.69 1296.98 136.64 1301.76 134.05C1306.82 131.46 1312.45 130.17 1318.66 130.17C1322.8 130.17 1326.88 130.98 1330.91 132.58C1334.93 134.19 1338.58 137.01 1341.86 141.03C1344.5 144.31 1346.29 148.33 1347.21 153.1C1347.78 156.26 1348.07 160.89 1348.07 166.98L1347.9 226.22H1322.72V166.37C1322.72 162.81 1322.14 159.87 1321 157.57C1318.81 153.2 1314.79 151.02 1308.93 151.02C1302.15 151.02 1297.46 153.84 1294.87 159.47C1293.55 162.46 1292.89 166.05 1292.89 170.25V226.22H1268.14V170.25C1268.14 164.67 1267.56 160.62 1266.42 158.09L1266.39 158.1Z" fill="#EE852E"/>
    <path d="M1374.19 142.4C1380.69 134.12 1391.84 129.98 1407.65 129.98C1417.94 129.98 1427.08 132.02 1435.07 136.1C1443.06 140.18 1447.06 147.89 1447.06 159.21V202.33C1447.06 205.32 1447.12 208.94 1447.23 213.2C1447.4 216.42 1447.89 218.6 1448.7 219.75C1449.5 220.9 1450.71 221.85 1452.32 222.6V226.22H1425.59C1424.84 224.32 1424.33 222.54 1424.04 220.87C1423.75 219.2 1423.52 217.31 1423.35 215.18C1419.96 218.86 1416.05 221.99 1411.62 224.58C1406.33 227.63 1400.35 229.15 1393.68 229.15C1385.17 229.15 1378.14 226.72 1372.6 221.86C1367.05 217 1364.28 210.12 1364.28 201.21C1364.28 189.65 1368.74 181.29 1377.65 176.12C1382.54 173.3 1389.72 171.29 1399.21 170.08L1407.57 169.05C1412.11 168.48 1415.36 167.76 1417.32 166.89C1420.83 165.4 1422.58 163.07 1422.58 159.9C1422.58 156.05 1421.24 153.39 1418.57 151.92C1415.9 150.45 1411.97 149.72 1406.8 149.72C1400.99 149.72 1396.88 151.16 1394.47 154.03C1392.75 156.16 1391.59 159.03 1391.02 162.65H1367.31C1367.83 154.43 1370.13 147.67 1374.21 142.38L1374.19 142.4ZM1392.47 208.46C1394.77 210.36 1397.59 211.31 1400.92 211.31C1406.21 211.31 1411.08 209.76 1415.54 206.65C1419.99 203.55 1422.31 197.88 1422.48 189.66V180.52C1420.93 181.5 1419.36 182.29 1417.78 182.89C1416.2 183.49 1414.03 184.05 1411.27 184.57L1405.75 185.61C1400.58 186.53 1396.87 187.65 1394.63 188.97C1390.84 191.21 1388.94 194.69 1388.94 199.4C1388.94 203.6 1390.12 206.62 1392.48 208.45L1392.47 208.46Z" fill="#EE852E"/>
    <path d="M1516.13 154.91C1506.24 154.91 1499.6 158.13 1496.21 164.57C1494.31 168.19 1493.36 173.77 1493.36 181.3V226.23H1468.61V132.23H1492.07V148.61C1495.86 142.34 1499.17 138.06 1501.99 135.76C1506.59 131.91 1512.57 129.98 1519.93 129.98C1520.39 129.98 1520.78 129.99 1521.1 130.02C1521.41 130.05 1522.12 130.09 1523.21 130.15V155.33C1521.66 155.16 1520.28 155.04 1519.07 154.99C1517.86 154.93 1516.88 154.9 1516.14 154.9L1516.13 154.91Z" fill="#EE852E"/>
    <path d="M1623.84 226.23H1594.17L1571.66 186.04L1561.48 196.65V226.23H1537.33V99.55H1561.48V168.02L1592.09 132.66H1622.53L1589.67 168.62L1623.82 226.23H1623.84Z" fill="#EE852E"/>
    <path d="M1716.29 198.63C1715.66 204.21 1712.75 209.87 1707.58 215.62C1699.53 224.76 1688.26 229.33 1673.78 229.33C1661.82 229.33 1651.27 225.48 1642.13 217.77C1632.99 210.07 1628.42 197.53 1628.42 180.17C1628.42 163.9 1632.54 151.42 1640.8 142.74C1649.05 134.06 1659.76 129.72 1672.92 129.72C1680.74 129.72 1687.78 131.19 1694.05 134.12C1700.32 137.05 1705.49 141.68 1709.57 148C1713.25 153.58 1715.63 160.04 1716.73 167.4C1717.36 171.71 1717.62 177.92 1717.51 186.03H1653.18C1653.52 195.46 1656.49 202.07 1662.06 205.86C1665.45 208.22 1669.53 209.4 1674.31 209.4C1679.37 209.4 1683.48 207.96 1686.64 205.09C1688.36 203.54 1689.89 201.38 1691.21 198.62H1716.3L1716.29 198.63ZM1691.97 169.83C1691.57 163.33 1689.6 158.4 1686.06 155.04C1682.52 151.68 1678.14 150 1672.91 150C1667.22 150 1662.81 151.78 1659.67 155.35C1656.54 158.92 1654.57 163.74 1653.76 169.84H1691.96L1691.97 169.83Z" fill="#EE852E"/>
    <path d="M1777.08 208.72V227.09L1765.44 227.52C1753.83 227.92 1745.89 225.91 1741.64 221.48C1738.88 218.66 1737.5 214.32 1737.5 208.46V150.6H1724.39V133.09H1737.5V106.87H1761.82V133.09H1777.08V150.6H1761.82V200.27C1761.82 204.12 1762.31 206.52 1763.29 207.47C1764.27 208.42 1767.26 208.89 1772.26 208.89C1773.01 208.89 1773.8 208.88 1774.63 208.85C1775.46 208.82 1776.28 208.78 1777.09 208.72H1777.08Z" fill="#EE852E"/>
    <path d="M902.54 0H361.87V81.86H902.54V0Z" fill="#EE852E"/>
    <path d="M404.6 70.67C397.03 70.67 391.25 68.61 387.25 64.49C381.89 59.44 379.21 52.16 379.21 42.66C379.21 33.16 381.89 25.68 387.25 20.82C391.25 16.7 397.03 14.64 404.6 14.64C412.17 14.64 417.95 16.7 421.95 20.82C427.29 25.68 429.96 32.96 429.96 42.66C429.96 52.36 427.29 59.44 421.95 64.49C417.95 68.61 412.17 70.67 404.6 70.67ZM415.05 56.45C417.61 53.22 418.89 48.62 418.89 42.66C418.89 36.7 417.6 32.13 415.03 28.89C412.46 25.65 408.98 24.02 404.6 24.02C400.22 24.02 396.72 25.64 394.11 28.87C391.5 32.1 390.2 36.7 390.2 42.66C390.2 48.62 391.5 53.22 394.11 56.45C396.72 59.68 400.22 61.3 404.6 61.3C408.98 61.3 412.47 59.68 415.05 56.45Z" fill="white"/>
    <path d="M528.28 69.2H517.22L495.6 31.6V69.2H485.29V16.26H496.89L517.97 53.22V16.26H528.28V69.2Z" fill="white"/>
    <path d="M585.66 16.26H596.72V59.68H622.94V69.2H585.66V16.26Z" fill="white"/>
    <path d="M676.8 16.26H687.79V69.2H676.8V16.26Z" fill="white"/>
    <path d="M787.98 69.2H776.92L755.3 31.6V69.2H744.99V16.26H756.59L777.67 53.22V16.26H787.98V69.2Z" fill="white"/>
    <path d="M882.21 46.07H856.5V59.68H885.81V69.2H845.69V16.26H884.51V25.63H856.5V36.87H882.21V46.06V46.07Z" fill="white"/>
    <path d="M134.2 304.79C124.17 304.79 116.05 298.39 113.99 288.86L110.74 273.87C105.51 272.04 100.5 269.88 95.6401 267.36C92.3001 269.55 89.3401 271.58 86.5701 273.99C77.8601 281.58 66.4301 281.99 59.3901 274.97L31.6601 247.32C24.3701 240.05 23.6301 229.39 29.8301 220.8L37.7101 209.88C35.1801 204.96 32.9401 199.61 30.8501 193.51C28.5501 192.97 26.3301 192.54 23.9401 192.07C21.3701 191.57 18.7001 191.04 15.7001 190.35C7.29006 188.43 1.29006 181.42 0.760057 172.9C-0.139943 158.32 -0.229943 145.37 0.470057 133.3C1.10006 122.54 7.57006 114.7 17.3701 112.83C22.2301 111.9 26.7401 111.02 31.0401 109.96C33.2601 104.49 35.3901 99.67 37.6101 95.13C34.9301 91.07 32.1701 87.23 29.3001 83.24C23.4801 75.13 24.2701 64.54 31.2401 57.47L58.1101 30.2C64.9801 23.05 75.1101 21.96 82.7901 27.55L96.1801 37.29C100.95 35.02 105.67 33.23 110.33 31.6C110.99 28.94 111.56 26.19 112.16 23.34C112.54 21.5 112.93 19.68 113.33 17.87C115.83 6.63996 124.87 -0.160045 137.03 -4.51431e-05L170.57 0.599955C179.97 0.769955 187.4 6.85995 189.5 16.12L192.99 31.5L203.97 35.67L206.91 37.14L219.99 27.55C228.09 21.62 238.29 22.87 245.98 30.74L272.54 57.93C277.6 63.11 280.5 72.39 273.49 82.93L265.65 94.71C268.02 99.42 270.35 104.31 272.16 109.66L287.23 112.72C296.88 114.68 303.36 122.6 303.38 132.42L303.45 170.92C303.47 181.87 295.94 190.52 285.14 191.96C280.15 192.62 275.84 193.29 271.83 194.02C270.06 199.15 268.05 204.52 265.57 209.93C267.77 213.27 269.87 216.33 272.31 219.34C279.16 227.8 279.38 238.36 272.83 245.03L253.38 264.83L244.9 273.31C236.98 281.23 225.74 281.74 216.93 274.58C213.75 271.99 210.36 269.52 206.7 267.12C201.99 269.57 197.34 271.53 192.92 273.2C191.97 278.14 190.97 283.23 189.63 288.47C187.13 298.18 178.73 304.72 168.73 304.74L134.24 304.8H134.2V304.79Z" fill="#404040"/>
    <path d="M138.14 270.53C130.37 270.53 124.07 265.57 122.47 258.18L119.95 246.56C115.89 245.14 112.01 243.47 108.25 241.51C105.66 243.21 103.36 244.78 101.22 246.65C94.47 252.53 85.61 252.85 80.15 247.41L58.65 225.97C53 220.33 52.42 212.07 57.23 205.41L63.34 196.95C61.38 193.13 59.64 188.99 58.02 184.26C56.24 183.84 54.52 183.51 52.66 183.14C50.67 182.75 48.6 182.34 46.27 181.81C39.75 180.32 35.1 174.89 34.69 168.28C33.99 156.98 33.92 146.94 34.47 137.58C34.95 129.24 39.98 123.16 47.57 121.71C51.34 120.99 54.83 120.31 58.17 119.48C59.89 115.24 61.54 111.51 63.26 107.99C61.18 104.85 59.04 101.87 56.82 98.7699C52.31 92.4899 52.92 84.2699 58.33 78.7899L79.16 57.6499C84.49 52.1099 92.34 51.2599 98.29 55.5899L108.67 63.1399C112.37 61.3799 116.03 59.9899 119.64 58.7299C120.15 56.6699 120.6 54.5399 121.06 52.3299C121.36 50.9099 121.65 49.4899 121.97 48.0899C123.92 39.3799 130.93 34.1099 140.35 34.2299L166.35 34.6999C173.64 34.8299 179.4 39.5499 181.02 46.7299L193.93 52.9399L192.24 61.8799L194.52 63.0199L204.66 55.5899C210.94 50.9899 218.84 51.9599 224.81 58.0699L245.4 79.1399C249.32 83.1499 251.57 90.3499 246.13 98.5199L240.05 107.65C241.89 111.3 243.69 115.09 245.1 119.24L256.78 121.61C264.26 123.13 269.29 129.27 269.3 136.88L269.35 166.72C269.37 175.21 263.53 181.91 255.16 183.03C251.29 183.54 247.95 184.06 244.85 184.62C243.47 188.6 241.92 192.76 239.99 196.95C241.7 199.54 243.33 201.91 245.22 204.24C250.53 210.8 250.7 218.99 245.62 224.15L230.54 239.5L223.97 246.08C217.83 252.22 209.12 252.62 202.29 247.06C199.82 245.05 200.69 257.5 197.85 255.64C194.2 257.54 174.96 263.18 171.54 264.48C170.8 268.31 167.42 255.25 166.38 259.32C164.44 266.85 172.69 270.44 164.94 270.46L138.2 270.5H138.17L138.14 270.53Z" fill="white"/>
    <path d="M176.98 285.21C175.99 289.05 172.92 291.66 168.72 291.66L134.23 291.72C130.46 291.72 127.58 289.84 126.77 286.09L122.41 265.98C122.16 264.46 121.25 263.5 119.81 263.07C111 260.43 102.98 256.88 95.1201 252.05C89.0501 256.17 83.3701 259.45 77.9901 264.14C75.7501 266.09 71.2801 268.36 68.6301 265.72L40.9001 238.07C37.8901 235.07 38.2101 231.55 40.4401 228.46L53.2501 210.72C47.6601 201.93 44.1301 192.74 41.1601 182.78C32.6101 180.12 26.9801 179.52 18.6301 177.62C15.9601 177.01 14.0001 174.97 13.8301 172.11C13.0501 159.37 12.8001 146.79 13.5401 134.08C13.7901 129.82 15.4901 126.52 19.8401 125.69C26.5401 124.41 33.2201 123.11 39.8201 121.15C41.0101 120.8 41.5901 118.91 41.9801 117.89C45.1701 109.78 48.5201 102.17 52.6701 94.49C48.5701 87.65 44.3601 81.79 39.9401 75.63C37.9001 72.79 38.0201 69.26 40.5801 66.66L67.5201 39.32C69.6401 37.09 72.6001 36.29 75.1201 38.13L95.1401 52.7C103.55 47.61 112.06 44.82 121 41.79C123.36 34.86 124.55 27.65 126.1 20.74C127.4 14.93 131.54 12.99 136.82 13.08L170.36 13.68C173.79 13.74 176.03 15.71 176.78 19.02L181.84 41.3L198.15 47.37L208.23 52.43L227.76 38.11C231.04 35.71 234.26 37.43 236.67 39.9L263.23 67.09C265.69 69.61 264.39 73.09 262.64 75.71L250.58 93.83C254.43 101.57 258.61 109 260.87 117.33C261.59 119.98 262.41 121.03 265.15 121.59L284.66 125.55C288.15 126.26 290.33 128.69 290.34 132.46L290.41 170.96C290.41 175.42 287.62 178.46 283.45 179.02C276.17 179.99 269.2 181.09 261.89 182.71C258.64 192.52 255.5 201.78 250.57 210.81C254.43 216.7 257.81 222.17 262.19 227.59C263.92 229.73 265.8 233.59 263.54 235.89L244.09 255.69L235.69 264.09C232.44 267.34 228.68 267.28 225.21 264.46C219.47 259.79 213.47 255.73 206.99 251.93C198.82 257.12 190.57 260.31 181.55 263.44C180.05 270.82 178.88 277.94 177 285.24L176.98 285.21ZM155.13 256.14C159.15 253.73 161.31 250.02 163.15 246.18C164.9 245.65 166.58 245.31 168.47 245.08C170.05 251.39 174.21 256.06 180.52 257.96C186.8 259.86 194.05 257.34 198.04 252.62C202.47 247.38 204.09 240.89 201.22 234.27C207.5 231.58 210.8 226.74 212.74 220.59L231.09 162.32C233.83 161.91 236.32 162.35 238.96 162.13C246.45 161.51 251.74 156.11 251.91 148.98C252.08 142.17 247.35 136.28 240.17 135.08C235.79 134.35 231.47 134.94 227 134.66C220.78 111.49 205.64 92.23 183.75 81.83C185.07 76.82 186.16 71.87 187.86 66.88C188.83 64.03 190.13 61.15 188.98 58.18C187.88 55.33 185.21 53.53 182.95 53.15C174.46 51.71 172.38 58.63 169.86 61.44C165.77 66.01 162.03 71.07 157.44 75.14L143.28 75.49C134.94 75.7 127.46 77.99 119.73 81.56C102.41 89.57 88.6701 103.73 81.1701 121.39C72.3601 142.12 73.3001 164.94 82.4401 185.27C87.9701 197.58 97.5501 208.68 108.55 216.58C110.35 217.88 105.18 225.45 109.02 230.04C112.3 233.97 118.03 233.55 122.03 230.48L130.09 237.14C128.89 244.25 131.15 250.88 136.73 254.91C141.82 258.59 149.21 259.69 155.13 256.12V256.14Z" fill="#EE852E"/>
    <path d="M144.53 193.35L117.15 224.31C121.78 203.31 128.84 183.96 134.83 163.11L96.5901 163.13C97.2801 161.01 98.6801 159.93 100.02 158.47L123.47 130.45L131.23 121.09L151.98 96.2299L170.64 73.9899L179.99 62.5699L174.57 81.9799L172.2 89.0599L161.3 126.79C161.06 127.61 161.07 128.32 161.33 128.84C161.81 129.79 162.7 129.06 163.63 129.03L181.86 128.56C187.9 128.41 193.72 128.27 200.06 128.6C197.42 132.55 194.83 135.44 192.01 138.66L171.79 161.74L144.51 193.38L144.53 193.35Z" fill="#404040"/>
    <path d="M134.46 228.29C131.59 228.21 129.74 224.05 130.75 221.93C131.59 220.18 133.1 218.16 134.91 217.38L191.05 217.19C194.46 217.18 196.57 213.54 195.51 210.36L144.91 210.39C142.67 210.39 140.56 211.41 138.43 210.07L185.47 156.54L212.23 156.14C214.17 150.68 217.44 144.82 223.37 143.72C228.62 142.75 234.2 143.55 239.48 143.61C242.29 143.64 243.42 146.91 243.25 148.97C242.47 158.34 226.51 148.83 223.7 157.64L203.8 220.04C202.43 224.32 198.41 227.57 194 227.64L158.74 228.16C150.64 228.28 143 228.54 134.47 228.31L134.46 228.29Z" fill="#404040"/>
    <path d="M191.08 235.15C194.56 238.32 194.75 243.28 192.14 246.8C189.42 250.46 184.26 250.99 180.1 248.49C177.52 246.95 176.7 243.9 176.7 241.07C176.7 238.24 178.11 235.46 180.57 233.93C184.23 231.64 187.85 232.21 191.08 235.15Z" fill="#404040"/>
    <path d="M151.96 248.06C148.53 250.76 145.02 250.39 141.78 248.1C139.24 246.31 137.82 242.86 138.51 239.5C139.24 235.94 142.78 233.63 145.64 233.54C149.62 233.41 152.47 235.34 153.97 238.44C155.49 241.58 154.8 245.83 151.96 248.06Z" fill="#404040"/>
    <path d="M1525.61 298.49H1542.46V315.06H1525.61V298.49Z" fill="#404040"/>
    <path d="M1609.95 276.19H1593.72C1593.42 273.93 1592.67 271.89 1591.44 270.07C1589.66 267.62 1586.9 266.4 1583.16 266.4C1577.82 266.4 1574.17 269.05 1572.21 274.35C1571.17 277.17 1570.65 280.91 1570.65 285.58C1570.65 290.25 1571.17 293.61 1572.21 296.31C1574.1 301.35 1577.66 303.87 1582.89 303.87C1586.6 303.87 1589.23 302.87 1590.78 300.87C1592.34 298.87 1593.28 296.28 1593.62 293.09H1609.8C1609.43 297.91 1607.69 302.47 1604.57 306.77C1599.6 313.7 1592.25 317.17 1582.5 317.17C1572.75 317.17 1565.58 314.28 1560.98 308.5C1556.38 302.72 1554.09 295.21 1554.09 285.98C1554.09 275.56 1556.63 267.47 1561.71 261.68C1566.79 255.9 1573.79 253.01 1582.73 253.01C1590.33 253.01 1596.55 254.72 1601.38 258.13C1606.22 261.54 1609.08 267.56 1609.97 276.2L1609.95 276.19Z" fill="#404040"/>
    <path d="M1671.39 262.13C1676.51 268.54 1679.06 276.12 1679.06 284.87C1679.06 293.62 1676.5 301.37 1671.39 307.69C1666.28 314.01 1658.51 317.17 1648.1 317.17C1637.69 317.17 1629.92 314.01 1624.81 307.69C1619.7 301.37 1617.14 293.76 1617.14 284.87C1617.14 275.98 1619.7 268.54 1624.81 262.13C1629.93 255.72 1637.69 252.51 1648.1 252.51C1658.51 252.51 1666.28 255.72 1671.39 262.13ZM1648.04 265.91C1643.41 265.91 1639.84 267.55 1637.34 270.83C1634.84 274.11 1633.59 278.79 1633.59 284.87C1633.59 290.95 1634.84 295.64 1637.34 298.94C1639.84 302.24 1643.41 303.89 1648.04 303.89C1652.67 303.89 1656.23 302.24 1658.72 298.94C1661.2 295.64 1662.44 290.95 1662.44 284.87C1662.44 278.79 1661.2 274.11 1658.72 270.83C1656.24 267.55 1652.68 265.91 1648.04 265.91Z" fill="#404040"/>
    <path d="M1724.43 271.14C1723.1 268.21 1720.48 266.75 1716.59 266.75C1712.07 266.75 1709.03 268.21 1707.47 271.14C1706.62 272.81 1706.19 275.29 1706.19 278.59V315.06H1690.12V254.57H1705.52V263.41C1707.48 260.26 1709.34 258.02 1711.08 256.68C1714.16 254.31 1718.14 253.12 1723.03 253.12C1727.66 253.12 1731.41 254.14 1734.26 256.18C1736.56 258.07 1738.3 260.5 1739.49 263.46C1741.57 259.9 1744.14 257.29 1747.22 255.62C1750.48 253.95 1754.11 253.12 1758.12 253.12C1760.79 253.12 1763.42 253.64 1766.01 254.68C1768.6 255.72 1770.96 257.53 1773.07 260.13C1774.78 262.24 1775.92 264.84 1776.52 267.91C1776.89 269.95 1777.08 272.93 1777.08 276.86L1776.97 315.06H1760.74V276.48C1760.74 274.18 1760.37 272.29 1759.63 270.81C1758.22 267.99 1755.63 266.59 1751.84 266.59C1747.47 266.59 1744.45 268.41 1742.78 272.04C1741.93 273.97 1741.5 276.28 1741.5 278.99V315.07H1725.54V278.99C1725.54 275.4 1725.17 272.78 1724.43 271.15V271.14Z" fill="#404040"/>
  </g>
  <defs>
    <clipPath id="clip0_32_2">
      <rect width="1777.08" height="317.17" fill="white"/>
    </clipPath>
  </defs>
</svg>